<mxfile host="Electron" modified="2023-12-22T10:28:03.577Z" agent="Mozilla/5.0 (Windows NT 10.0; Win64; x64) AppleWebKit/537.36 (KHTML, like Gecko) draw.io/22.1.2 Chrome/114.0.5735.289 Electron/25.9.4 Safari/537.36" etag="9j0Juu3n33oSUsCAcsZF" version="22.1.2" type="device">
  <diagram name="Page-1" id="0jd3SNXUYkxKQeBW6LAI">
    <mxGraphModel dx="1036" dy="606" grid="1" gridSize="10" guides="1" tooltips="1" connect="1" arrows="1" fold="1" page="1" pageScale="1" pageWidth="850" pageHeight="1100" background="#ffffff" math="0" shadow="0">
      <root>
        <mxCell id="0" />
        <mxCell id="1" parent="0" />
        <mxCell id="tS_OadQuBDv15wI_11yC-13" value="" style="rounded=0;whiteSpace=wrap;html=1;fillColor=#FFFFFF;gradientColor=#FFFFFF;strokeColor=none;" vertex="1" parent="1">
          <mxGeometry x="170" y="170" width="400" height="270" as="geometry" />
        </mxCell>
        <mxCell id="tS_OadQuBDv15wI_11yC-1" value="" style="outlineConnect=0;dashed=0;verticalLabelPosition=bottom;verticalAlign=top;align=center;html=1;shape=mxgraph.aws3.user;fillColor=#D2D3D3;gradientColor=none;" vertex="1" parent="1">
          <mxGeometry x="187.5" y="190" width="45" height="63" as="geometry" />
        </mxCell>
        <mxCell id="tS_OadQuBDv15wI_11yC-2" value="" style="dashed=0;outlineConnect=0;html=1;align=center;labelPosition=center;verticalLabelPosition=bottom;verticalAlign=top;shape=mxgraph.weblogos.github" vertex="1" parent="1">
          <mxGeometry x="182" y="370" width="56" height="56" as="geometry" />
        </mxCell>
        <mxCell id="tS_OadQuBDv15wI_11yC-4" value="" style="image;sketch=0;aspect=fixed;html=1;points=[];align=center;fontSize=12;image=img/lib/mscae/Docker.svg;" vertex="1" parent="1">
          <mxGeometry x="347.49999999999994" y="190" width="63.42" height="52" as="geometry" />
        </mxCell>
        <mxCell id="tS_OadQuBDv15wI_11yC-5" value="" style="endArrow=classic;html=1;rounded=0;strokeWidth=2;strokeColor=#000000;" edge="1" parent="1">
          <mxGeometry width="50" height="50" relative="1" as="geometry">
            <mxPoint x="209.76" y="294" as="sourcePoint" />
            <mxPoint x="209.76" y="370" as="targetPoint" />
          </mxGeometry>
        </mxCell>
        <mxCell id="tS_OadQuBDv15wI_11yC-7" value="" style="endArrow=classic;html=1;rounded=0;strokeWidth=2;strokeColor=#000000;" edge="1" parent="1">
          <mxGeometry width="50" height="50" relative="1" as="geometry">
            <mxPoint x="247.5" y="398.5" as="sourcePoint" />
            <mxPoint x="317.5" y="397.5" as="targetPoint" />
          </mxGeometry>
        </mxCell>
        <mxCell id="tS_OadQuBDv15wI_11yC-8" value="&lt;font style=&quot;font-size: 20px;&quot; color=&quot;#000000&quot;&gt;file&lt;/font&gt;" style="text;html=1;strokeColor=none;fillColor=none;align=center;verticalAlign=middle;whiteSpace=wrap;rounded=0;strokeWidth=4;" vertex="1" parent="1">
          <mxGeometry x="349.21" y="242" width="60" height="30" as="geometry" />
        </mxCell>
        <mxCell id="tS_OadQuBDv15wI_11yC-9" value="" style="endArrow=classic;html=1;rounded=0;strokeWidth=2;strokeColor=#000000;" edge="1" parent="1">
          <mxGeometry width="50" height="50" relative="1" as="geometry">
            <mxPoint x="427.5" y="211" as="sourcePoint" />
            <mxPoint x="497.5" y="210" as="targetPoint" />
          </mxGeometry>
        </mxCell>
        <mxCell id="tS_OadQuBDv15wI_11yC-10" value="" style="endArrow=classic;html=1;rounded=0;strokeWidth=2;strokeColor=#000000;" edge="1" parent="1">
          <mxGeometry width="50" height="50" relative="1" as="geometry">
            <mxPoint x="378.79" y="332" as="sourcePoint" />
            <mxPoint x="378.79" y="272" as="targetPoint" />
          </mxGeometry>
        </mxCell>
        <mxCell id="tS_OadQuBDv15wI_11yC-11" value="&lt;font style=&quot;font-size: 20px;&quot; color=&quot;#000000&quot;&gt;User&lt;/font&gt;" style="text;html=1;strokeColor=none;fillColor=none;align=center;verticalAlign=middle;whiteSpace=wrap;rounded=0;strokeWidth=4;" vertex="1" parent="1">
          <mxGeometry x="179.99999999999997" y="253" width="60" height="30" as="geometry" />
        </mxCell>
        <mxCell id="tS_OadQuBDv15wI_11yC-12" value="" style="endArrow=classic;html=1;rounded=0;strokeWidth=2;strokeColor=#000000;" edge="1" parent="1">
          <mxGeometry width="50" height="50" relative="1" as="geometry">
            <mxPoint x="547.5" y="272" as="sourcePoint" />
            <mxPoint x="547.5" y="348" as="targetPoint" />
          </mxGeometry>
        </mxCell>
      </root>
    </mxGraphModel>
  </diagram>
</mxfile>
